-
      the fast  and The Hottest Private Tracker on the net

Please Seed back to make the speed Faster!!
 ............ NFO .............
-[IMG]http://i.imgur.com/8CpNLio.jpg[/IMG]

Source: A Friend
 
http://www.imdb.com/title/tt1555058/

A playwright whose marriage and career are in a free fall has an explosive run-in with his former neighbor, a right-wing ex-con.

General
Complete name                            : Collaborator 2011 DVDRip x264 AAC-OFFLiNE.mp4
Format                                   : MPEG-4
Format profile                           : Base Media
Codec ID                                 : isom
File size                                : 699 MiB
Duration                                 : 1h 27mn
Overall bit rate mode                    : Variable
Overall bit rate                         : 1 122 Kbps
Encoded date                             : UTC 2013-03-16 16:45:43
Tagged date                              : UTC 2013-03-16 16:45:43

Video
ID                                       : 1
Format                                   : AVC
Format/Info                              : Advanced Video Codec
Format profile                           : High@L4.1
Format settings, CABAC                   : Yes
Format settings, ReFrames                : 3 frames
Codec ID                                 : avc1
Codec ID/Info                            : Advanced Video Coding
Duration                                 : 1h 27mn
Bit rate mode                            : Variable
Bit rate                                 : 998 Kbps
Maximum bit rate                         : 40.0 Mbps
Width                                    : 720 pixels
Height                                   : 400 pixels
Display aspect ratio                     : 16:9
Frame rate mode                          : Constant
Frame rate                               : 23.976 fps
Color space                              : YUV
Chroma subsampling                       : 4:2:0
Bit depth                                : 8 bits
Scan type                                : Progressive
Bits/(Pixel*Frame)                       : 0.145
Stream size                              : 621 MiB (89%)
Writing library                          : x264 core 130 r2273 b3065e6

Audio
ID                                       : 2
Format                                   : AAC
Format/Info                              : Advanced Audio Codec
Format profile                           : LC
Codec ID                                 : 40
Duration                                 : 1h 27mn
Bit rate mode                            : Variable
Bit rate                                 : 122 Kbps
Maximum bit rate                         : 177 Kbps
Channel(s)                               : 2 channels
Channel positions                        : Front: L R
Sampling rate                            : 48.0 KHz
Compression mode                         : Lossy
Stream size                              : 75.8 MiB (11%)
Language                                 : English
Encoded date                             : UTC 2013-03-16 05:08:22
Tagged date                              : UTC 2013-03-16 16:46:12

[IMG]http://i.imgur.com/a4unnBk.png[/IMG]
[IMG]http://i.imgur.com/9kFvPU7.png[/IMG]
[IMG]http://i.imgur.com/1KvkHP0.png[/IMG]
[IMG]http://i.imgur.com/IS28e0u.png[/IMG]

Greets: To Our Friends